{
  "asset": {
    "generator": "Box3 Mesh Exporter",
    "version": "2.0"
  },
  "accessors": [
    {
      "name": "positions_0",
      "componentType": 5126,
      "count": 6552,
      "type": "VEC3",
      "bufferView": 0,
      "byteOffset": 0,
      "min": [
        0,
        0,
        0
      ],
      "max": [
        40,
        40,
        40
      ]
    },
    {
      "name": "texcoords_0",
      "componentType": 5126,
      "count": 6552,
      "type": "VEC2",
      "bufferView": 1,
      "byteOffset": 0,
      "min": [
        0.027777777777777776,
        0.05555555555555555
      ],
      "max": [
        0.9722222222222222,
        0.9444444444444444
      ]
    },
    {
      "name": "indices_0",
      "componentType": 5123,
      "count": 9828,
      "type": "SCALAR",
      "bufferView": 2,
      "byteOffset": 0,
      "min": [
        0
      ],
      "max": [
        6551
      ]
    },
    {
      "name": "positions_1",
      "componentType": 5126,
      "count": 216,
      "type": "VEC3",
      "bufferView": 3,
      "byteOffset": 0,
      "min": [
        0,
        0,
        0
      ],
      "max": [
        9,
        1,
        9
      ]
    },
    {
      "name": "texcoords_1",
      "componentType": 5126,
      "count": 216,
      "type": "VEC2",
      "bufferView": 4,
      "byteOffset": 0,
      "min": [
        0.6111111111111112,
        0.8888888888888888
      ],
      "max": [
        0.6388888888888888,
        0.9444444444444444
      ]
    },
    {
      "name": "indices_1",
      "componentType": 5121,
      "count": 324,
      "type": "SCALAR",
      "bufferView": 5,
      "byteOffset": 0,
      "min": [
        0
      ],
      "max": [
        215
      ]
    },
    {
      "name": "positions_2",
      "componentType": 5126,
      "count": 216,
      "type": "VEC3",
      "bufferView": 6,
      "byteOffset": 0,
      "min": [
        0,
        0,
        0
      ],
      "max": [
        9,
        1,
        9
      ]
    },
    {
      "name": "texcoords_2",
      "componentType": 5126,
      "count": 216,
      "type": "VEC2",
      "bufferView": 7,
      "byteOffset": 0,
      "min": [
        0.6111111111111112,
        0.8888888888888888
      ],
      "max": [
        0.6388888888888888,
        0.9444444444444444
      ]
    },
    {
      "name": "indices_2",
      "componentType": 5121,
      "count": 324,
      "type": "SCALAR",
      "bufferView": 8,
      "byteOffset": 0,
      "min": [
        0
      ],
      "max": [
        215
      ]
    },
    {
      "name": "positions_3",
      "componentType": 5126,
      "count": 216,
      "type": "VEC3",
      "bufferView": 9,
      "byteOffset": 0,
      "min": [
        0,
        0,
        0
      ],
      "max": [
        9,
        1,
        9
      ]
    },
    {
      "name": "texcoords_3",
      "componentType": 5126,
      "count": 216,
      "type": "VEC2",
      "bufferView": 10,
      "byteOffset": 0,
      "min": [
        0.6111111111111112,
        0.8888888888888888
      ],
      "max": [
        0.6388888888888888,
        0.9444444444444444
      ]
    },
    {
      "name": "indices_3",
      "componentType": 5121,
      "count": 324,
      "type": "SCALAR",
      "bufferView": 11,
      "byteOffset": 0,
      "min": [
        0
      ],
      "max": [
        215
      ]
    },
    {
      "name": "positions_4",
      "componentType": 5126,
      "count": 216,
      "type": "VEC3",
      "bufferView": 12,
      "byteOffset": 0,
      "min": [
        0,
        0,
        0
      ],
      "max": [
        9,
        1,
        9
      ]
    },
    {
      "name": "texcoords_4",
      "componentType": 5126,
      "count": 216,
      "type": "VEC2",
      "bufferView": 13,
      "byteOffset": 0,
      "min": [
        0.6111111111111112,
        0.8888888888888888
      ],
      "max": [
        0.6388888888888888,
        0.9444444444444444
      ]
    },
    {
      "name": "indices_4",
      "componentType": 5121,
      "count": 324,
      "type": "SCALAR",
      "bufferView": 14,
      "byteOffset": 0,
      "min": [
        0
      ],
      "max": [
        215
      ]
    },
    {
      "name": "positions_5",
      "componentType": 5126,
      "count": 216,
      "type": "VEC3",
      "bufferView": 15,
      "byteOffset": 0,
      "min": [
        0,
        0,
        0
      ],
      "max": [
        9,
        1,
        9
      ]
    },
    {
      "name": "texcoords_5",
      "componentType": 5126,
      "count": 216,
      "type": "VEC2",
      "bufferView": 16,
      "byteOffset": 0,
      "min": [
        0.6111111111111112,
        0.8888888888888888
      ],
      "max": [
        0.6388888888888888,
        0.9444444444444444
      ]
    },
    {
      "name": "indices_5",
      "componentType": 5121,
      "count": 324,
      "type": "SCALAR",
      "bufferView": 17,
      "byteOffset": 0,
      "min": [
        0
      ],
      "max": [
        215
      ]
    },
    {
      "name": "positions_6",
      "componentType": 5126,
      "count": 216,
      "type": "VEC3",
      "bufferView": 18,
      "byteOffset": 0,
      "min": [
        0,
        0,
        0
      ],
      "max": [
        9,
        1,
        9
      ]
    },
    {
      "name": "texcoords_6",
      "componentType": 5126,
      "count": 216,
      "type": "VEC2",
      "bufferView": 19,
      "byteOffset": 0,
      "min": [
        0.6111111111111112,
        0.8888888888888888
      ],
      "max": [
        0.6388888888888888,
        0.9444444444444444
      ]
    },
    {
      "name": "indices_6",
      "componentType": 5121,
      "count": 324,
      "type": "SCALAR",
      "bufferView": 20,
      "byteOffset": 0,
      "min": [
        0
      ],
      "max": [
        215
      ]
    }
  ],
  "bufferViews": [
    {
      "name": "bufferView_positions_0",
      "buffer": 0,
      "byteLength": 78624,
      "byteOffset": 0,
      "byteStride": 12,
      "target": 34962
    },
    {
      "name": "bufferView_texcoords_0",
      "buffer": 0,
      "byteLength": 52416,
      "byteOffset": 78624,
      "byteStride": 8,
      "target": 34962
    },
    {
      "name": "bufferView_indices_0",
      "buffer": 0,
      "byteLength": 19656,
      "byteOffset": 131040,
      "target": 34963
    },
    {
      "name": "bufferView_positions_1",
      "buffer": 0,
      "byteLength": 2592,
      "byteOffset": 150696,
      "byteStride": 12,
      "target": 34962
    },
    {
      "name": "bufferView_texcoords_1",
      "buffer": 0,
      "byteLength": 1728,
      "byteOffset": 153288,
      "byteStride": 8,
      "target": 34962
    },
    {
      "name": "bufferView_indices_1",
      "buffer": 0,
      "byteLength": 648,
      "byteOffset": 155016,
      "target": 34963
    },
    {
      "name": "bufferView_positions_2",
      "buffer": 0,
      "byteLength": 2592,
      "byteOffset": 155340,
      "byteStride": 12,
      "target": 34962
    },
    {
      "name": "bufferView_texcoords_2",
      "buffer": 0,
      "byteLength": 1728,
      "byteOffset": 157932,
      "byteStride": 8,
      "target": 34962
    },
    {
      "name": "bufferView_indices_2",
      "buffer": 0,
      "byteLength": 648,
      "byteOffset": 159660,
      "target": 34963
    },
    {
      "name": "bufferView_positions_3",
      "buffer": 0,
      "byteLength": 2592,
      "byteOffset": 159984,
      "byteStride": 12,
      "target": 34962
    },
    {
      "name": "bufferView_texcoords_3",
      "buffer": 0,
      "byteLength": 1728,
      "byteOffset": 162576,
      "byteStride": 8,
      "target": 34962
    },
    {
      "name": "bufferView_indices_3",
      "buffer": 0,
      "byteLength": 648,
      "byteOffset": 164304,
      "target": 34963
    },
    {
      "name": "bufferView_positions_4",
      "buffer": 0,
      "byteLength": 2592,
      "byteOffset": 164628,
      "byteStride": 12,
      "target": 34962
    },
    {
      "name": "bufferView_texcoords_4",
      "buffer": 0,
      "byteLength": 1728,
      "byteOffset": 167220,
      "byteStride": 8,
      "target": 34962
    },
    {
      "name": "bufferView_indices_4",
      "buffer": 0,
      "byteLength": 648,
      "byteOffset": 168948,
      "target": 34963
    },
    {
      "name": "bufferView_positions_5",
      "buffer": 0,
      "byteLength": 2592,
      "byteOffset": 169272,
      "byteStride": 12,
      "target": 34962
    },
    {
      "name": "bufferView_texcoords_5",
      "buffer": 0,
      "byteLength": 1728,
      "byteOffset": 171864,
      "byteStride": 8,
      "target": 34962
    },
    {
      "name": "bufferView_indices_5",
      "buffer": 0,
      "byteLength": 648,
      "byteOffset": 173592,
      "target": 34963
    },
    {
      "name": "bufferView_positions_6",
      "buffer": 0,
      "byteLength": 2592,
      "byteOffset": 173916,
      "byteStride": 12,
      "target": 34962
    },
    {
      "name": "bufferView_texcoords_6",
      "buffer": 0,
      "byteLength": 1728,
      "byteOffset": 176508,
      "byteStride": 8,
      "target": 34962
    },
    {
      "name": "bufferView_indices_6",
      "buffer": 0,
      "byteLength": 648,
      "byteOffset": 178236,
      "target": 34963
    },
    {
      "name": "bufferView_image",
      "buffer": 0,
      "byteLength": 280,
      "byteOffset": 178560
    },
    {
      "name": "bufferView_emissive_image",
      "buffer": 0,
      "byteLength": 198,
      "byteOffset": 178840
    }
  ],
  "buffers": [
    {
      "name": "Weighted Companion Cube",
      "byteLength": 180984,
      "uri": "data:application/octet-stream;base64,"
    }
  ],
  "images": [
    {
      "name": "image",
      "mimeType": "image/png",
      "bufferView": 21
    },
    {
      "name": "emissive image",
      "mimeType": "image/png",
      "bufferView": 22
    }
  ],
  "materials": [
    {
      "name": "material",
      "pbrMetallicRoughness": {
        "baseColorTexture": {
          "index": 0
        },
        "baseColorFactor": [
          1,
          1,
          1,
          1
        ],
        "metallicFactor": 0,
        "roughnessFactor": 1
      },
      "emissiveTexture": {
        "index": 1
      },
      "emissiveFactor": [
        0,
        0,
        0
      ],
      "alphaMode": "OPAQUE",
      "doubleSided": false
    }
  ],
  "meshes": [
    {
      "name": "mesh_0",
      "primitives": [
        {
          "attributes": {
            "POSITION": 0,
            "TEXCOORD_0": 1
          },
          "indices": 2,
          "material": 0,
          "mode": 4
        }
      ]
    },
    {
      "name": "mesh_1",
      "primitives": [
        {
          "attributes": {
            "POSITION": 3,
            "TEXCOORD_0": 4
          },
          "indices": 5,
          "material": 0,
          "mode": 4
        }
      ]
    },
    {
      "name": "mesh_2",
      "primitives": [
        {
          "attributes": {
            "POSITION": 6,
            "TEXCOORD_0": 7
          },
          "indices": 8,
          "material": 0,
          "mode": 4
        }
      ]
    },
    {
      "name": "mesh_3",
      "primitives": [
        {
          "attributes": {
            "POSITION": 9,
            "TEXCOORD_0": 10
          },
          "indices": 11,
          "material": 0,
          "mode": 4
        }
      ]
    },
    {
      "name": "mesh_4",
      "primitives": [
        {
          "attributes": {
            "POSITION": 12,
            "TEXCOORD_0": 13
          },
          "indices": 14,
          "material": 0,
          "mode": 4
        }
      ]
    },
    {
      "name": "mesh_5",
      "primitives": [
        {
          "attributes": {
            "POSITION": 15,
            "TEXCOORD_0": 16
          },
          "indices": 17,
          "material": 0,
          "mode": 4
        }
      ]
    },
    {
      "name": "mesh_6",
      "primitives": [
        {
          "attributes": {
            "POSITION": 18,
            "TEXCOORD_0": 19
          },
          "indices": 20,
          "material": 0,
          "mode": 4
        }
      ]
    }
  ],
  "nodes": [
    {
      "name": "Root",
      "rotation": [
        0,
        0,
        0,
        1
      ],
      "scale": [
        1,
        1,
        1
      ],
      "translation": [
        0,
        0,
        0
      ],
      "children": [
        1,
        2
      ]
    },
    {
      "name": "Root",
      "rotation": [
        0,
        0,
        0,
        1
      ],
      "scale": [
        1,
        1,
        1
      ],
      "translation": [
        0,
        0,
        0
      ]
    },
    {
      "name": "Root",
      "rotation": [
        0,
        0,
        0,
        1
      ],
      "scale": [
        1,
        1,
        1
      ],
      "translation": [
        0,
        0,
        0
      ],
      "children": [
        3
      ]
    },
    {
      "name": "Cube",
      "rotation": [
        0,
        0,
        0,
        1
      ],
      "scale": [
        1,
        1,
        1
      ],
      "translation": [
        20,
        20,
        20
      ],
      "children": [
        4,
        5,
        6,
        7,
        8,
        9,
        10
      ]
    },
    {
      "name": "Cube",
      "mesh": 0,
      "rotation": [
        0,
        0,
        0,
        1
      ],
      "scale": [
        1,
        1,
        1
      ],
      "translation": [
        -20,
        -20,
        -20
      ]
    },
    {
      "name": "Love",
      "mesh": 1,
      "rotation": [
        9.639531839411575e-8,
        0.7071069478988647,
        -0.7071066498756409,
        4.335698520208098e-7
      ],
      "scale": [
        1.000000238418579,
        1,
        1
      ],
      "translation": [
        4.500001430511475,
        4.415614128112793,
        18.527450561523438
      ]
    },
    {
      "name": "Love",
      "mesh": 2,
      "rotation": [
        0.4999994933605194,
        0.4999995529651642,
        -0.49999910593032837,
        0.5000011920928955
      ],
      "scale": [
        0.9999989867210388,
        0.9999988675117493,
        0.999998927116394
      ],
      "translation": [
        -18.527433395385742,
        4.41558837890625,
        4.4999895095825195
      ]
    },
    {
      "name": "Love",
      "mesh": 3,
      "rotation": [
        0,
        0,
        0,
        1
      ],
      "scale": [
        1,
        1,
        1
      ],
      "translation": [
        -4.5,
        -18.611825942993164,
        -4.5
      ]
    },
    {
      "name": "Love",
      "mesh": 4,
      "rotation": [
        9.639531839411575e-8,
        0.7071069478988647,
        -0.7071066498756409,
        4.335698520208098e-7
      ],
      "scale": [
        1.000000238418579,
        1,
        1
      ],
      "translation": [
        4.500009536743164,
        4.415602684020996,
        -17.52743148803711
      ]
    },
    {
      "name": "Love",
      "mesh": 5,
      "rotation": [
        0.4999994933605194,
        0.4999995529651642,
        -0.49999910593032837,
        0.5000011920928955
      ],
      "scale": [
        0.9999989867210388,
        0.9999988675117493,
        0.999998927116394
      ],
      "translation": [
        17.52742576599121,
        4.4156174659729,
        4.500007629394531
      ]
    },
    {
      "name": "Love",
      "mesh": 6,
      "rotation": [
        0,
        0,
        0,
        1
      ],
      "scale": [
        1,
        1,
        1
      ],
      "translation": [
        -4.5,
        17.443035125732422,
        -4.5
      ]
    }
  ],
  "samplers": [
    {
      "wrapS": 33071,
      "wrapT": 33071,
      "magFilter": 9728,
      "minFilter": 9728
    }
  ],
  "scene": 0,
  "scenes": [
    {
      "nodes": [
        0
      ]
    }
  ],
  "textures": [
    {
      "name": "texture",
      "sampler": 0,
      "source": 0
    },
    {
      "name": "emissive texture",
      "sampler": 0,
      "source": 1
    }
  ]
}